<svg width="40" height="40" viewBox="0 0 40 40" fill="none" xmlns="http://www.w3.org/2000/svg">
<g clip-path="url(#clip0_17_89)">
<path d="M4.64975 27.3942C4.64975 30.0932 6.55736 32.3538 9.09473 32.9009C7.84086 33.5034 6.97338 34.7856 6.97338 36.2671C6.97338 38.3255 8.64732 40 10.7054 40C12.763 40 14.4375 38.3255 14.4375 36.2671C14.4375 34.8824 13.6784 33.6722 12.5553 33.0281H27.4446C26.3215 33.6722 25.5627 34.8824 25.5627 36.2671C25.5627 38.3255 27.237 40 29.2946 40C31.3525 40 33.027 38.3255 33.027 36.2671C33.027 34.8824 32.2679 33.6722 31.1448 33.0281H33.9419C34.7196 33.0281 35.3502 32.3972 35.3502 31.6195C35.3502 30.8423 34.7196 30.211 33.9419 30.211H10.2829C8.72934 30.211 7.46618 28.9475 7.46618 27.3942V25.2987C8.2954 25.7797 9.25715 26.0566 10.2829 26.0566H29.2946C32.2598 26.0566 35.22 23.823 36.0341 20.9721L39.5209 8.767C39.6426 8.34263 39.5572 7.88525 39.291 7.53239C39.0248 7.17926 38.6087 6.97172 38.167 6.97172H7.46618V5.63407C7.46618 2.52781 4.93944 0 1.83291 0C1.05554 0 0.424561 0.630976 0.424561 1.40848C0.424561 2.18667 1.05554 2.81684 1.83291 2.81684C3.38618 2.81684 4.64975 4.08094 4.64975 5.63421V27.3942ZM29.2947 37.183C28.7904 37.183 28.3794 36.7723 28.3794 36.2671C28.3794 35.7626 28.7904 35.3517 29.2947 35.3517C29.7994 35.3517 30.2102 35.7626 30.2102 36.2671C30.21 36.7723 29.7994 37.183 29.2947 37.183ZM10.7054 37.183C10.2007 37.183 9.78995 36.7723 9.78995 36.2671C9.78995 35.7626 10.2007 35.3517 10.7054 35.3517C11.2099 35.3517 11.6208 35.7626 11.6208 36.2671C11.6208 36.7723 11.2099 37.183 10.7054 37.183ZM33.326 20.198C32.8632 21.8185 30.9792 23.2393 29.2946 23.2393H10.2829C8.72934 23.2393 7.46618 21.9758 7.46618 20.4225V9.78896H36.2997L33.326 20.198Z" fill="white"/>
</g>
<defs>
<clipPath id="clip0_17_89">
<rect width="40" height="40" fill="white"/>
</clipPath>
</defs>
</svg>
