<svg width="60" height="60" viewBox="0 0 60 60" fill="none" xmlns="http://www.w3.org/2000/svg">
<path d="M30 48C29.7883 48 29.5764 47.9498 29.382 47.8489C29.186 47.7474 24.5297 45.3174 19.8062 41.2408C17.0016 38.8202 14.7591 36.3184 13.1411 33.8047C11.0568 30.5668 10 27.2924 10 24.0726C10 17.9671 14.796 13 20.691 13C24.6781 13 28.1623 15.2717 30 18.6314C31.8377 15.2717 35.322 13 39.309 13C45.2039 13 50 17.9671 50 24.0726C50 27.2924 48.9432 30.5668 46.8589 33.8047C45.2408 36.3184 42.9984 38.8202 40.1938 41.2409C35.4704 45.3175 30.814 47.7475 30.618 47.8489C30.4236 47.9498 30.2117 48 30 48ZM20.691 15.8628C16.3203 15.8628 12.7643 19.5457 12.7643 24.0725C12.7643 34.6359 26.8497 43.1725 29.9996 44.9487C33.1483 43.1703 47.2358 34.6206 47.2358 24.0725C47.2358 19.5457 43.6799 15.8628 39.3091 15.8628C34.9382 15.8628 31.3824 19.5457 31.3824 24.0725C31.3824 24.8629 30.7634 25.504 30.0001 25.504C29.2369 25.504 28.6179 24.8629 28.6179 24.0725C28.6178 19.5458 25.062 15.8628 20.691 15.8628Z" fill="black"/>
</svg>
