<svg width="194" height="56" viewBox="0 0 194 56" fill="none" xmlns="http://www.w3.org/2000/svg">
<path d="M21.6318 2L2.45211 24.4802C1.70373 25.3574 2.82228 26.6548 3.81171 26.0628C13.9465 19.9982 28.6124 12.8751 29.592 23.1658C30.695 34.7519 63.1556 24.0413 82.9366 15.7493C83.9461 15.3262 84.9741 16.7493 84.3729 17.664C79.7353 24.7196 83.6842 29.5939 125.098 10.6693C126.034 10.2417 126.972 11.3193 126.372 12.1553L119.792 21.3242C119.137 22.2368 120.378 23.5609 121.37 23.0345C127.053 20.0193 134.12 17.6911 134.567 23.1658C135.078 29.4286 165.516 17.1202 185.35 13.4447C186.524 13.2273 186.711 13.8263 185.654 14.3794C179.985 17.3445 174.617 22.774 174.617 26.0402C174.617 30.7465 183.138 22.0264 190.507 13.9492C191.329 13.0484 192.135 13.6184 191.605 14.7165C187.614 22.9837 184.156 36.3415 186.557 54M95.2637 2L91.5323 6.1809" stroke="#1E1E1E" stroke-width="3" stroke-linecap="round"/>
</svg>
