<svg width="397" height="106" viewBox="0 0 397 106" fill="none" xmlns="http://www.w3.org/2000/svg">
<path d="M46.5 3L3.61289 50.853C2.8425 51.7126 3.9103 53.0067 4.90169 52.4154C24.9073 40.4847 60.3348 21.8478 62.5 43.5C64.8041 66.5406 135.187 43.4988 174.286 27.4629C175.302 27.0461 176.218 28.4247 175.502 29.2578C162.307 44.615 163.77 59.4211 257.893 18.0912C258.838 17.6764 259.801 18.7543 259.18 19.578L240.501 44.356C239.824 45.2533 240.975 46.5193 241.95 45.9596C253.704 39.2065 272.464 31.4103 273.5 43.5C274.604 56.3785 345.181 28.2162 384.115 23.6215C385.306 23.4809 385.326 23.2785 384.168 23.5887C370.441 27.2623 354 41.285 354 49C354 59.5507 377.51 34.8362 393.261 18.1521C394.099 17.265 394.196 17.2968 393.499 18.2979C383.768 32.2697 372.108 61.2536 378 102.5M194.5 3L187 11" stroke="white" stroke-width="6" stroke-linecap="round"/>
</svg>
